<?xml version="1.0" standalone="no"?><!DOCTYPE svg PUBLIC "-//W3C//DTD SVG 1.1//EN" "http://www.w3.org/Graphics/SVG/1.1/DTD/svg11.dtd"><svg t="1502078504253" class="icon" style="" viewBox="0 0 1024 1024" version="1.1" xmlns="http://www.w3.org/2000/svg" p-id="4259" xmlns:xlink="http://www.w3.org/1999/xlink" width="128" height="128"><defs><style type="text/css"></style></defs><path d="M426.65984 192.65536c-61.2352-59.94496-203.93984-84.04992-284.38528 2.12992C63.56992 278.85568 0 481.50528 0 672.6656c0 230.62528 193.29024 262.61504 298.65984 149.34016 61.00992-65.69984 66.7648-75.93984 106.65984-128h213.34016c40.09984 52.06016 45.64992 62.30016 106.68032 128C830.70976 935.28064 1024 903.2704 1024 672.6656c0-191.13984-63.56992-393.80992-142.29504-477.85984-80.40448-86.20032-222.9248-62.09536-284.3648-2.1504C573.6448 215.69536 512 224.6656 512 224.6656s-61.66528-8.97024-85.34016-32.01024z m-85.31968 140.8v61.87008h61.87008c24.73984 0 44.81024 19.21024 44.81024 42.65984s-20.04992 42.65984-44.81024 42.65984h-61.87008v61.87008c0 24.76032-19.21024 44.81024-42.65984 44.81024-23.47008 0-42.65984-20.04992-42.65984-44.81024v-61.8496H194.12992c-24.73984 0-44.81024-19.21024-44.81024-42.65984s20.04992-42.65984 44.81024-42.65984H256v-61.87008c0-24.73984 19.18976-44.81024 42.65984-44.81024 23.47008 0 42.68032 20.04992 42.68032 44.78976z m384 29.88032a53.32992 53.32992 0 1 1 106.65984 0 53.32992 53.32992 0 0 1-106.65984 0z m-106.68032 127.97952c0-29.42976 23.90016-53.32992 53.32992-53.32992s53.32992 23.90016 53.32992 53.32992a53.3504 53.3504 0 0 1-106.65984 0z" p-id="4260" fill="#999999"></path></svg>